<svg width="60" height="75" viewBox="0 0 60 75" fill="none" xmlns="http://www.w3.org/2000/svg">
<path d="M43.9051 23.3961L25.8631 38.0241L18.1831 28.2321C17.8835 27.8724 17.4555 27.6435 16.99 27.5941C16.5244 27.5447 16.058 27.6786 15.6895 27.9675C15.3211 28.2563 15.0797 28.6773 15.0165 29.1412C14.9533 29.605 15.0733 30.0753 15.3511 30.4521L24.1471 41.6781C24.2928 41.8644 24.4737 42.0202 24.6796 42.1365C24.8855 42.2528 25.1124 42.3275 25.3471 42.3561H25.5511C25.964 42.3561 26.3644 42.2142 26.6851 41.9541L46.1731 26.1981C46.5439 25.8974 46.78 25.4616 46.8295 24.9868C46.879 24.5119 46.7379 24.0369 46.4371 23.6661C46.1364 23.2953 45.7006 23.0592 45.2258 23.0097C44.7509 22.9602 44.2759 23.1014 43.9051 23.4021V23.3961Z" fill="#2172D2"/>
<path d="M15.4996 8.29867C19.7915 5.43092 24.8373 3.90019 29.9991 3.90002C36.9191 3.90773 43.5535 6.66011 48.4467 11.5533C53.3401 16.4467 56.0925 23.0814 56.1 30.0017C56.0997 35.1632 54.569 40.2087 51.7013 44.5004C48.8334 48.7925 44.7572 52.1378 39.988 54.1133C35.2189 56.0887 29.971 56.6056 24.9081 55.5985C19.8452 54.5915 15.1947 52.1057 11.5445 48.4555C7.89435 44.8054 5.40857 40.1548 4.4015 35.0919C3.39442 30.029 3.91129 24.7811 5.88674 20.012C7.86218 15.2428 11.2075 11.1666 15.4996 8.29867ZM15.8329 51.2025C20.0264 54.0045 24.9566 55.5 30 55.5C36.763 55.5 43.249 52.8134 48.0312 48.0313C52.8134 43.2491 55.5 36.7631 55.5 30C55.5 24.9566 54.0044 20.0264 51.2025 15.833C48.4005 11.6395 44.4179 8.37113 39.7584 6.4411C35.0989 4.51106 29.9717 4.00608 25.0252 4.99C20.0787 5.97392 15.535 8.40256 11.9688 11.9688C8.40253 15.535 5.97389 20.0787 4.98997 25.0252C4.00604 29.9717 4.51103 35.0989 6.44106 39.7585C8.3711 44.418 11.6395 48.4005 15.8329 51.2025Z" fill="white" stroke="#2172D2" stroke-width="3"/>
</svg>
