<svg width="59" height="50" viewBox="0 0 59 50" fill="none" xmlns="http://www.w3.org/2000/svg">
<path d="M39.51 33.0539L29.5109 23.4971L19.5118 33.0539" fill="white"/>
<path d="M39.51 33.0539L29.5109 23.4971L19.5118 33.0539" stroke="black" stroke-width="3" stroke-linecap="round" stroke-linejoin="round"/>
<path d="M50.4838 38.7641C52.922 37.4937 54.848 35.4834 55.958 33.0506C57.068 30.6178 57.2988 27.9009 56.6138 25.3288C55.9288 22.7567 54.3672 20.4759 52.1754 18.8463C49.9835 17.2167 47.2863 16.3312 44.5094 16.3294H41.3597C40.6031 13.5322 39.1928 10.9354 37.2349 8.73408C35.2771 6.5328 32.8226 4.78437 30.056 3.62024C27.2894 2.45612 24.2826 1.90659 21.2618 2.01296C18.241 2.11934 15.2848 2.87885 12.6153 4.23441C9.94581 5.58997 7.63259 7.50629 5.84953 9.83931C4.06647 12.1723 2.85997 14.8613 2.32075 17.7041C1.78152 20.547 1.9236 23.4696 2.73629 26.2524C3.54899 29.0352 5.01116 31.6057 7.01287 33.7707" fill="white"/>
<path d="M50.4838 38.7641C52.922 37.4937 54.848 35.4834 55.958 33.0506C57.068 30.6178 57.2988 27.9009 56.6138 25.3288C55.9288 22.7567 54.3672 20.4759 52.1754 18.8463C49.9835 17.2167 47.2863 16.3312 44.5094 16.3294H41.3597C40.603 13.5322 39.1928 10.9354 37.2349 8.73408C35.2771 6.5328 32.8226 4.78437 30.056 3.62024C27.2894 2.45612 24.2826 1.90659 21.2618 2.01296C18.241 2.11934 15.2848 2.87885 12.6153 4.23441C9.94581 5.58997 7.63259 7.50629 5.84953 9.83931C4.06647 12.1723 2.85997 14.8613 2.32075 17.7041C1.78152 20.547 1.9236 23.4696 2.73629 26.2524C3.54899 29.0352 5.01116 31.6057 7.01287 33.7707" stroke="#2172D2" stroke-width="3" stroke-linecap="round" stroke-linejoin="round"/>
<path d="M19 38L28.9991 47.5569L38.9981 38" fill="white"/>
<path d="M19 38L28.9991 47.5569L38.9981 38" stroke="#2172D2" stroke-width="3" stroke-linecap="round" stroke-linejoin="round"/>
<path d="M29 23V44.5029" stroke="#2172D2" stroke-width="3" stroke-linecap="round" stroke-linejoin="round"/>
</svg>
