<svg width="53" height="54" viewBox="0 0 53 54" fill="none" xmlns="http://www.w3.org/2000/svg">
<mask id="path-1-inside-1" fill="white">
<path d="M50.393 35.8118C49.714 35.8118 49.112 35.3674 49.007 34.7414L43.729 2.77931C43.701 2.62282 43.54 2.50388 43.344 2.50388H7.99398C7.79799 2.50388 7.62998 2.63534 7.60198 2.81061L3.21299 34.7163C3.11499 35.4049 2.41498 35.8932 1.65198 35.8055C0.881985 35.7242 0.335984 35.0982 0.433984 34.4096L4.82999 2.4851C5.04699 1.05789 6.41198 0 8.00098 0H43.351C44.926 0 46.256 1.00781 46.508 2.39747L51.786 34.3783C51.898 35.0606 51.373 35.6991 50.603 35.7993C50.533 35.8118 50.463 35.8118 50.393 35.8118Z"/>
</mask>
<path d="M50.393 35.8118C49.714 35.8118 49.112 35.3674 49.007 34.7414L43.729 2.77931C43.701 2.62282 43.54 2.50388 43.344 2.50388H7.99398C7.79799 2.50388 7.62998 2.63534 7.60198 2.81061L3.21299 34.7163C3.11499 35.4049 2.41498 35.8932 1.65198 35.8055C0.881985 35.7242 0.335984 35.0982 0.433984 34.4096L4.82999 2.4851C5.04699 1.05789 6.41198 0 8.00098 0H43.351C44.926 0 46.256 1.00781 46.508 2.39747L51.786 34.3783C51.898 35.0606 51.373 35.6991 50.603 35.7993C50.533 35.8118 50.463 35.8118 50.393 35.8118Z" fill="#2172D2"/>
<path d="M49.007 34.7414L46.0471 35.2302L46.0483 35.2377L49.007 34.7414ZM43.729 2.77931L46.6889 2.29053L46.6856 2.27071L46.6821 2.25093L43.729 2.77931ZM7.60198 2.81061L4.63955 2.33735L4.63441 2.36951L4.62997 2.40177L7.60198 2.81061ZM3.21299 34.7163L6.18309 35.1391L6.185 35.1252L3.21299 34.7163ZM1.65198 35.8055L1.99431 32.8251L1.9808 32.8236L1.96728 32.8222L1.65198 35.8055ZM0.433984 34.4096L3.40408 34.8323L3.40594 34.8189L0.433984 34.4096ZM4.82999 2.4851L1.86407 2.03415L1.8609 2.05499L1.85803 2.07587L4.82999 2.4851ZM46.508 2.39747L49.4679 1.90897L49.4641 1.88554L49.4598 1.86218L46.508 2.39747ZM51.786 34.3783L54.7464 33.8924L54.7459 33.8898L51.786 34.3783ZM50.603 35.7993L50.216 32.8243L50.1452 32.8336L50.0748 32.8461L50.603 35.7993ZM50.393 32.8118C50.9032 32.8118 51.7852 33.1696 51.9656 34.2451L46.0483 35.2377C46.4387 37.5651 48.5248 38.8118 50.393 38.8118V32.8118ZM51.9669 34.2526L46.6889 2.29053L40.7691 3.26809L46.0471 35.2302L51.9669 34.2526ZM46.6821 2.25093C46.3355 0.313692 44.6053 -0.496117 43.344 -0.496117V5.50388C42.4747 5.50388 41.0665 4.93194 40.7759 3.30769L46.6821 2.25093ZM43.344 -0.496117H7.99398V5.50388H43.344V-0.496117ZM7.99398 -0.496117C6.55131 -0.496117 4.93425 0.492595 4.63955 2.33735L10.5644 3.28386C10.3257 4.77808 9.04466 5.50388 7.99398 5.50388V-0.496117ZM4.62997 2.40177L0.240973 34.3075L6.185 35.1252L10.574 3.21944L4.62997 2.40177ZM0.242916 34.2936C0.411007 33.1126 1.41741 32.7589 1.99431 32.8251L1.30966 38.7859C3.41256 39.0275 5.81896 37.6972 6.18305 35.1391L0.242916 34.2936ZM1.96728 32.8222C2.56189 32.885 3.58918 33.5316 3.40405 34.8323L-2.53609 33.9869C-2.91721 36.6648 -0.797917 38.5633 1.33669 38.7889L1.96728 32.8222ZM3.40594 34.8189L7.80194 2.89434L1.85803 2.07587L-2.53797 34.0004L3.40594 34.8189ZM7.7959 2.93606C7.78751 2.9912 7.76867 3.03406 7.75319 3.05938C7.73905 3.08251 7.73284 3.0832 7.74767 3.07161C7.78164 3.04508 7.86857 3 8.00098 3V-3C5.18303 -3 2.34007 -1.09649 1.86407 2.03415L7.7959 2.93606ZM8.00098 3H43.351V-3H8.00098V3ZM43.351 3C43.5011 3 43.5867 3.04814 43.612 3.06734C43.6234 3.07597 43.6152 3.07277 43.5999 3.04879C43.5834 3.02294 43.5652 2.98254 43.5561 2.93276L49.4598 1.86218C48.907 -1.18636 46.1273 -3 43.351 -3V3ZM43.548 2.88597L48.826 34.8668L54.7459 33.8898L49.4679 1.90897L43.548 2.88597ZM48.8256 34.8643C48.6148 33.5798 49.6142 32.9026 50.216 32.8243L50.9899 38.7742C53.1318 38.4956 55.1812 36.5415 54.7464 33.8924L48.8256 34.8643ZM50.0748 32.8461C50.2085 32.8222 50.3125 32.8155 50.364 32.8132C50.4071 32.8113 50.4392 32.8118 50.393 32.8118V38.8118C50.4207 38.8118 50.7564 38.8194 51.1311 38.7524L50.0748 32.8461Z" fill="#2172D2" mask="url(#path-1-inside-1)"/>
<path d="M34.678 35.1795L35.9486 35.3981L17.542 35.1795C17.297 33.7711 15.974 32.7445 14.385 32.7445H3.192C1.435 32.7445 0 34.0215 0 35.5989V50.4032C0 51.9743 1.428 53.2576 3.192 53.2576H49.028C50.792 53.2576 52.227 51.9743 52.22 50.3969V35.5989C52.22 34.0277 50.792 32.7445 49.028 32.7445H37.835C36.246 32.7445 34.923 33.7648 34.678 35.1795ZM34.678 35.1795L35.9483 35.3995C35.1994 39.4718 31.0812 42.7499 26.11 42.7499C21.1391 42.7499 17.0212 39.4723 16.2719 35.4005L34.678 35.1795Z" fill="#2172D2" stroke="#2172D2" stroke-width="3"/>
<mask id="path-4-inside-2" fill="white">
<path d="M44.415 26.4347H7.80498C7.41998 26.4347 7.10498 26.153 7.10498 25.8087C7.10498 25.4644 7.41998 25.1827 7.80498 25.1827H44.415C44.8 25.1827 45.115 25.4644 45.115 25.8087C45.115 26.153 44.807 26.4347 44.415 26.4347Z"/>
</mask>
<path d="M44.415 26.4347H7.80498C7.41998 26.4347 7.10498 26.153 7.10498 25.8087C7.10498 25.4644 7.41998 25.1827 7.80498 25.1827H44.415C44.8 25.1827 45.115 25.4644 45.115 25.8087C45.115 26.153 44.807 26.4347 44.415 26.4347Z" fill="#2172D2"/>
<path d="M44.415 23.4347H7.80498V29.4347H44.415V23.4347ZM7.80498 23.4347C8.7527 23.4347 10.105 24.1896 10.105 25.8087H4.10498C4.10498 28.1164 6.08726 29.4347 7.80498 29.4347V23.4347ZM10.105 25.8087C10.105 27.4278 8.7527 28.1827 7.80498 28.1827V22.1827C6.08726 22.1827 4.10498 23.501 4.10498 25.8087H10.105ZM7.80498 28.1827H44.415V22.1827H7.80498V28.1827ZM44.415 28.1827C43.4673 28.1827 42.115 27.4278 42.115 25.8087H48.115C48.115 23.501 46.1327 22.1827 44.415 22.1827V28.1827ZM42.115 25.8087C42.115 24.208 43.4538 23.4347 44.415 23.4347V29.4347C46.1602 29.4347 48.115 28.098 48.115 25.8087H42.115Z" fill="#2172D2" mask="url(#path-4-inside-2)"/>
<mask id="path-6-inside-3" fill="white">
<path d="M42.588 18.2533H9.63201C9.24701 18.2533 8.93201 17.9716 8.93201 17.6273C8.93201 17.283 9.24701 17.0013 9.63201 17.0013H42.581C42.966 17.0013 43.281 17.283 43.281 17.6273C43.281 17.9716 42.973 18.2533 42.588 18.2533Z"/>
</mask>
<path d="M42.588 18.2533H9.63201C9.24701 18.2533 8.93201 17.9716 8.93201 17.6273C8.93201 17.283 9.24701 17.0013 9.63201 17.0013H42.581C42.966 17.0013 43.281 17.283 43.281 17.6273C43.281 17.9716 42.973 18.2533 42.588 18.2533Z" fill="#2172D2"/>
<path d="M42.588 15.2533H9.63201V21.2533H42.588V15.2533ZM9.63201 15.2533C10.5797 15.2533 11.932 16.0082 11.932 17.6273H5.93201C5.93201 19.935 7.91428 21.2533 9.63201 21.2533V15.2533ZM11.932 17.6273C11.932 19.2464 10.5797 20.0013 9.63201 20.0013V14.0013C7.91428 14.0013 5.93201 15.3196 5.93201 17.6273H11.932ZM9.63201 20.0013H42.581V14.0013H9.63201V20.0013ZM42.581 20.0013C41.6333 20.0013 40.281 19.2464 40.281 17.6273H46.281C46.281 15.3196 44.2987 14.0013 42.581 14.0013V20.0013ZM40.281 17.6273C40.281 16.0452 41.5992 15.2533 42.588 15.2533V21.2533C44.3468 21.2533 46.281 19.898 46.281 17.6273H40.281Z" fill="#2172D2" mask="url(#path-6-inside-3)"/>
<mask id="path-8-inside-4" fill="white">
<path d="M40.754 10.0655H11.466C11.081 10.0655 10.766 9.78385 10.766 9.43957C10.766 9.09529 11.081 8.8136 11.466 8.8136H40.754C41.139 8.8136 41.454 9.09529 41.454 9.43957C41.454 9.78385 41.139 10.0655 40.754 10.0655Z"/>
</mask>
<path d="M40.754 10.0655H11.466C11.081 10.0655 10.766 9.78385 10.766 9.43957C10.766 9.09529 11.081 8.8136 11.466 8.8136H40.754C41.139 8.8136 41.454 9.09529 41.454 9.43957C41.454 9.78385 41.139 10.0655 40.754 10.0655Z" fill="#2172D2"/>
<path d="M40.754 7.06554H11.466V13.0655H40.754V7.06554ZM11.466 7.06554C12.4137 7.06554 13.766 7.82046 13.766 9.43957H7.76599C7.76599 11.7472 9.74826 13.0655 11.466 13.0655V7.06554ZM13.766 9.43957C13.766 11.0587 12.4137 11.8136 11.466 11.8136V5.8136C9.74826 5.8136 7.76599 7.1319 7.76599 9.43957H13.766ZM11.466 11.8136H40.754V5.8136H11.466V11.8136ZM40.754 11.8136C39.8063 11.8136 38.454 11.0587 38.454 9.43957H44.454C44.454 7.1319 42.4717 5.8136 40.754 5.8136V11.8136ZM38.454 9.43957C38.454 7.82046 39.8063 7.06554 40.754 7.06554V13.0655C42.4717 13.0655 44.454 11.7472 44.454 9.43957H38.454Z" fill="#2172D2" mask="url(#path-8-inside-4)"/>
</svg>
