<svg width="253" height="40" viewBox="0 0 253 40" fill="none" xmlns="http://www.w3.org/2000/svg">
<path d="M0 5C0 2.79086 1.79086 1 4 1H46C48.2091 1 50 2.79086 50 5V35C50 37.2091 48.2091 39 46 39H4C1.79086 39 0 37.2091 0 35V5Z" fill="#1B5DAA"/>
<path d="M34.3125 9.73438H43.9531V20.4375L34.3125 9.73438ZM24.1094 16.0156H24.0156C24.0156 13.8698 24.599 12.2865 25.7656 11.2656C26.9323 10.2448 28.7292 9.73438 31.1562 9.73438L43.9531 25.2656C43.9531 27.3281 43.3958 28.8021 42.2812 29.6875C41.1979 30.5521 39.4271 30.9844 36.9688 30.9844L24.1094 16.0156ZM24.0625 20.2344L33.3438 31H24.0625V20.2344Z" fill="white"/>
<path d="M23.5625 9.73438H30.5625V18.5625H28.8125C27.6667 18.5625 26.8229 18.4427 26.2812 18.2031C25.7396 17.9531 25.3125 17.6771 25 17.375C24.6979 17.0625 24.4375 16.6562 24.2188 16.1562C23.7812 15.1354 23.5625 13.7188 23.5625 11.9062V9.73438ZM13.4531 9.73438H21.8594V31H13.4531V9.73438ZM4.70312 9.73438H11.7031V11.9062C11.7031 14.5833 11.2188 16.4062 10.25 17.375C9.45833 18.1667 8.19271 18.5625 6.45312 18.5625H4.70312V9.73438Z" fill="white"/>
<path d="M56.6426 11.957H75.4688V16.9062H69.1523V32H62.959V16.9062H56.6426V11.957ZM77.9707 17.4805H83.1797V19.8594C83.681 18.8294 84.196 18.123 84.7246 17.7402C85.2624 17.3483 85.9232 17.1523 86.707 17.1523C87.5273 17.1523 88.4251 17.4076 89.4004 17.918L87.6777 21.8828C87.0215 21.6094 86.502 21.4727 86.1191 21.4727C85.39 21.4727 84.8249 21.7734 84.4238 22.375C83.8496 23.2227 83.5625 24.8086 83.5625 27.1328V32H77.9707V17.4805ZM95.4297 22.1836L90.1113 21.623C90.3118 20.6934 90.599 19.9642 90.9727 19.4355C91.3555 18.8978 91.9023 18.4329 92.6133 18.041C93.1237 17.7585 93.8255 17.5397 94.7188 17.3848C95.612 17.2298 96.5781 17.1523 97.6172 17.1523C99.2852 17.1523 100.625 17.248 101.637 17.4395C102.648 17.6217 103.492 18.0091 104.166 18.6016C104.64 19.0117 105.014 19.5951 105.287 20.3516C105.561 21.099 105.697 21.8145 105.697 22.498V28.9102C105.697 29.5938 105.738 30.1315 105.82 30.5234C105.911 30.9062 106.103 31.3984 106.395 32H101.172C100.962 31.6263 100.826 31.3438 100.762 31.1523C100.698 30.9518 100.634 30.6419 100.57 30.2227C99.8411 30.9245 99.1165 31.4258 98.3965 31.7266C97.4121 32.1276 96.2682 32.3281 94.9648 32.3281C93.2331 32.3281 91.916 31.9271 91.0137 31.125C90.1204 30.3229 89.6738 29.334 89.6738 28.1582C89.6738 27.0553 89.9974 26.1484 90.6445 25.4375C91.2917 24.7266 92.4857 24.1979 94.2266 23.8516C96.3138 23.4323 97.6673 23.1406 98.2871 22.9766C98.9069 22.8034 99.5632 22.5801 100.256 22.3066C100.256 21.623 100.115 21.1445 99.832 20.8711C99.5495 20.5977 99.0527 20.4609 98.3418 20.4609C97.4303 20.4609 96.7467 20.6068 96.291 20.8984C95.9355 21.1263 95.6484 21.5547 95.4297 22.1836ZM100.256 25.1094C99.4902 25.3828 98.6927 25.6243 97.8633 25.834C96.7331 26.1348 96.0176 26.431 95.7168 26.7227C95.4069 27.0234 95.252 27.3652 95.252 27.748C95.252 28.1855 95.4023 28.5456 95.7031 28.8281C96.013 29.1016 96.4642 29.2383 97.0566 29.2383C97.6764 29.2383 98.2507 29.0879 98.7793 28.7871C99.3171 28.4863 99.6953 28.1217 99.9141 27.6934C100.142 27.2559 100.256 26.6908 100.256 25.998V25.1094ZM109.033 17.4805H114.215V19.8457C114.99 18.8796 115.773 18.1914 116.566 17.7812C117.359 17.362 118.326 17.1523 119.465 17.1523C121.005 17.1523 122.208 17.6126 123.074 18.5332C123.949 19.4447 124.387 20.8574 124.387 22.7715V32H118.795V24.0156C118.795 23.1042 118.626 22.4616 118.289 22.0879C117.952 21.7051 117.478 21.5137 116.867 21.5137C116.193 21.5137 115.646 21.7689 115.227 22.2793C114.807 22.7897 114.598 23.7057 114.598 25.0273V32H109.033V17.4805ZM126.725 27.9805L132.248 27.4609C132.476 28.1172 132.795 28.5866 133.205 28.8691C133.615 29.1517 134.162 29.293 134.846 29.293C135.593 29.293 136.172 29.1335 136.582 28.8145C136.901 28.5775 137.061 28.2812 137.061 27.9258C137.061 27.5247 136.851 27.2148 136.432 26.9961C136.131 26.8411 135.333 26.6497 134.039 26.4219C132.107 26.0846 130.762 25.7747 130.006 25.4922C129.258 25.2005 128.625 24.7129 128.105 24.0293C127.595 23.3457 127.34 22.5664 127.34 21.6914C127.34 20.7344 127.618 19.9095 128.174 19.2168C128.73 18.5241 129.495 18.0091 130.471 17.6719C131.446 17.3255 132.754 17.1523 134.395 17.1523C136.126 17.1523 137.402 17.2845 138.223 17.5488C139.052 17.8132 139.74 18.2233 140.287 18.7793C140.843 19.3353 141.303 20.0872 141.668 21.0352L136.391 21.5547C136.254 21.0898 136.026 20.748 135.707 20.5293C135.27 20.2376 134.741 20.0918 134.121 20.0918C133.492 20.0918 133.032 20.2057 132.74 20.4336C132.458 20.6523 132.316 20.9212 132.316 21.2402C132.316 21.5957 132.499 21.8646 132.863 22.0469C133.228 22.2292 134.021 22.3932 135.242 22.5391C137.092 22.7487 138.469 23.0404 139.371 23.4141C140.273 23.7878 140.962 24.321 141.436 25.0137C141.919 25.7064 142.16 26.4674 142.16 27.2969C142.16 28.1354 141.905 28.9512 141.395 29.7441C140.893 30.5371 140.096 31.1706 139.002 31.6445C137.917 32.1094 136.436 32.3418 134.559 32.3418C131.906 32.3418 130.015 31.9635 128.885 31.207C127.764 30.4505 127.044 29.375 126.725 27.9805ZM151.02 17.4805H153.672V21.5547H151.02V32H145.441V21.5547H143.363V17.4805H145.441V16.8242C145.441 16.2318 145.505 15.5801 145.633 14.8691C145.76 14.1582 145.997 13.5794 146.344 13.1328C146.699 12.6771 147.191 12.3125 147.82 12.0391C148.458 11.7565 149.388 11.6152 150.609 11.6152C151.585 11.6152 153.002 11.7292 154.861 11.957L154.246 15.3203C153.581 15.2109 153.043 15.1562 152.633 15.1562C152.132 15.1562 151.771 15.2428 151.553 15.416C151.334 15.5801 151.179 15.8444 151.088 16.209C151.042 16.4095 151.02 16.8333 151.02 17.4805ZM171.855 26.1211H160.699C160.799 27.0143 161.041 27.6797 161.424 28.1172C161.962 28.7461 162.663 29.0605 163.529 29.0605C164.076 29.0605 164.596 28.9238 165.088 28.6504C165.389 28.4772 165.712 28.1719 166.059 27.7344L171.541 28.2402C170.702 29.6986 169.691 30.7467 168.506 31.3848C167.321 32.0137 165.621 32.3281 163.406 32.3281C161.483 32.3281 159.97 32.0592 158.867 31.5215C157.764 30.9746 156.848 30.1133 156.119 28.9375C155.399 27.7526 155.039 26.3626 155.039 24.7676C155.039 22.498 155.764 20.6615 157.213 19.2578C158.671 17.8542 160.681 17.1523 163.242 17.1523C165.32 17.1523 166.961 17.4668 168.164 18.0957C169.367 18.7246 170.283 19.6361 170.912 20.8301C171.541 22.0241 171.855 23.5781 171.855 25.4922V26.1211ZM166.195 23.4551C166.086 22.3796 165.794 21.6094 165.32 21.1445C164.855 20.6797 164.24 20.4473 163.475 20.4473C162.59 20.4473 161.884 20.7982 161.355 21.5C161.018 21.9375 160.804 22.5892 160.713 23.4551H166.195ZM174.467 17.4805H179.676V19.8594C180.177 18.8294 180.692 18.123 181.221 17.7402C181.758 17.3483 182.419 17.1523 183.203 17.1523C184.023 17.1523 184.921 17.4076 185.896 17.918L184.174 21.8828C183.518 21.6094 182.998 21.4727 182.615 21.4727C181.886 21.4727 181.321 21.7734 180.92 22.375C180.346 23.2227 180.059 24.8086 180.059 27.1328V32H174.467V17.4805ZM186.143 25.3691L192.035 25C192.163 25.957 192.423 26.6862 192.814 27.1875C193.452 27.9987 194.364 28.4043 195.549 28.4043C196.433 28.4043 197.112 28.1992 197.586 27.7891C198.069 27.3698 198.311 26.8867 198.311 26.3398C198.311 25.8203 198.083 25.3555 197.627 24.9453C197.171 24.5352 196.114 24.1478 194.455 23.7832C191.739 23.1725 189.802 22.3613 188.645 21.3496C187.478 20.3379 186.895 19.0482 186.895 17.4805C186.895 16.4505 187.191 15.4798 187.783 14.5684C188.385 13.6478 189.283 12.9277 190.477 12.4082C191.68 11.8796 193.325 11.6152 195.412 11.6152C197.973 11.6152 199.924 12.0938 201.264 13.0508C202.613 13.9987 203.415 15.5117 203.67 17.5898L197.832 17.9316C197.677 17.0293 197.349 16.373 196.848 15.9629C196.355 15.5527 195.672 15.3477 194.797 15.3477C194.077 15.3477 193.535 15.5026 193.17 15.8125C192.805 16.1133 192.623 16.4824 192.623 16.9199C192.623 17.2389 192.773 17.526 193.074 17.7812C193.366 18.0456 194.059 18.2917 195.152 18.5195C197.859 19.1029 199.796 19.6953 200.963 20.2969C202.139 20.8893 202.991 21.6276 203.52 22.5117C204.057 23.3958 204.326 24.3848 204.326 25.4785C204.326 26.7637 203.971 27.9486 203.26 29.0332C202.549 30.1178 201.555 30.9427 200.279 31.5078C199.003 32.0638 197.395 32.3418 195.453 32.3418C192.044 32.3418 189.684 31.6855 188.371 30.373C187.059 29.0605 186.316 27.3926 186.143 25.3691ZM207.293 11.957H212.857V15.7441H207.293V11.957ZM207.293 17.4805H212.857V32H207.293V17.4805ZM226.516 17.4805H231.725V31.1934L231.738 31.8359C231.738 32.7474 231.542 33.6133 231.15 34.4336C230.768 35.263 230.253 35.9329 229.605 36.4434C228.967 36.9538 228.152 37.3229 227.158 37.5508C226.174 37.7786 225.044 37.8926 223.768 37.8926C220.851 37.8926 218.846 37.4551 217.752 36.5801C216.667 35.7051 216.125 34.5339 216.125 33.0664C216.125 32.8841 216.134 32.638 216.152 32.3281L221.553 32.9434C221.689 33.4447 221.899 33.791 222.182 33.9824C222.592 34.265 223.107 34.4062 223.727 34.4062C224.529 34.4062 225.126 34.1921 225.518 33.7637C225.919 33.3353 226.119 32.5879 226.119 31.5215V29.3203C225.572 29.9674 225.025 30.4368 224.479 30.7285C223.622 31.1842 222.697 31.4121 221.703 31.4121C219.762 31.4121 218.194 30.5645 217 28.8691C216.152 27.666 215.729 26.0755 215.729 24.0977C215.729 21.8372 216.275 20.1146 217.369 18.9297C218.463 17.7448 219.894 17.1523 221.662 17.1523C222.792 17.1523 223.722 17.3438 224.451 17.7266C225.189 18.1094 225.878 18.7428 226.516 19.627V17.4805ZM221.279 24.5215C221.279 25.5697 221.503 26.349 221.949 26.8594C222.396 27.3607 222.984 27.6113 223.713 27.6113C224.406 27.6113 224.984 27.3516 225.449 26.832C225.923 26.3034 226.16 25.5104 226.16 24.4531C226.16 23.3958 225.914 22.5892 225.422 22.0332C224.93 21.4681 224.328 21.1855 223.617 21.1855C222.906 21.1855 222.337 21.4453 221.908 21.9648C221.489 22.4753 221.279 23.3275 221.279 24.5215ZM235.088 17.4805H240.27V19.8457C241.044 18.8796 241.828 18.1914 242.621 17.7812C243.414 17.362 244.38 17.1523 245.52 17.1523C247.06 17.1523 248.263 17.6126 249.129 18.5332C250.004 19.4447 250.441 20.8574 250.441 22.7715V32H244.85V24.0156C244.85 23.1042 244.681 22.4616 244.344 22.0879C244.007 21.7051 243.533 21.5137 242.922 21.5137C242.247 21.5137 241.701 21.7689 241.281 22.2793C240.862 22.7897 240.652 23.7057 240.652 25.0273V32H235.088V17.4805Z" fill="#2B2B2B"/>
</svg>
