<svg width="50" height="39" viewBox="0 0 50 39" fill="none" xmlns="http://www.w3.org/2000/svg">
<path d="M0 5C0 2.79086 1.79086 1 4 1H46C48.2091 1 50 2.79086 50 5V35C50 37.2091 48.2091 39 46 39H4C1.79086 39 0 37.2091 0 35V5Z" fill="#1B5DAA"/>
<path d="M34.3125 9.73438H43.9531V20.4375L34.3125 9.73438ZM24.1094 16.0156H24.0156C24.0156 13.8698 24.599 12.2865 25.7656 11.2656C26.9323 10.2448 28.7292 9.73438 31.1562 9.73438L43.9531 25.2656C43.9531 27.3281 43.3958 28.8021 42.2812 29.6875C41.1979 30.5521 39.4271 30.9844 36.9688 30.9844L24.1094 16.0156ZM24.0625 20.2344L33.3438 31H24.0625V20.2344Z" fill="white"/>
<path d="M23.5625 9.73438H30.5625V18.5625H28.8125C27.6667 18.5625 26.8229 18.4427 26.2812 18.2031C25.7396 17.9531 25.3125 17.6771 25 17.375C24.6979 17.0625 24.4375 16.6562 24.2188 16.1562C23.7812 15.1354 23.5625 13.7188 23.5625 11.9062V9.73438ZM13.4531 9.73438H21.8594V31H13.4531V9.73438ZM4.70312 9.73438H11.7031V11.9062C11.7031 14.5833 11.2188 16.4062 10.25 17.375C9.45833 18.1667 8.19271 18.5625 6.45312 18.5625H4.70312V9.73438Z" fill="white"/>
</svg>
