<svg width="48" height="35" viewBox="0 0 48 35" fill="none" xmlns="http://www.w3.org/2000/svg">
<path d="M40.7907 32.7751C42.7413 31.7116 44.2823 30.0289 45.1704 27.9923C46.0585 25.9558 46.2431 23.6816 45.6951 21.5285C45.1471 19.3754 43.8976 17.4661 42.144 16.102C40.3904 14.7379 38.2324 13.9966 36.0107 13.9951H33.4907C32.8853 11.6536 31.757 9.47976 30.1906 7.63707C28.6241 5.79439 26.6604 4.33079 24.4469 3.3563C22.2334 2.38181 19.8278 1.9218 17.4109 2.01085C14.994 2.0999 12.6288 2.73569 10.493 3.87042C8.35724 5.00515 6.50649 6.60929 5.07991 8.56225C3.65333 10.5152 2.68804 12.7662 2.25662 15.1459C1.8252 17.5256 1.93887 19.9721 2.58909 22.3016C3.23931 24.6311 4.40915 26.7828 6.01066 28.5951" stroke="#2172D2" stroke-width="3" stroke-linecap="round" stroke-linejoin="round"/>
</svg>
